<svg width="210" height="210" viewBox="0 0 210 210" fill="none" xmlns="http://www.w3.org/2000/svg">
<rect width="210" height="210" fill="#3B7559"/>
<g filter="url(#filter0_d)">
<path d="M29.76 104.088C32.2773 104.557 34.3467 105.816 35.968 107.864C37.5893 109.912 38.4 112.259 38.4 114.904C38.4 117.293 37.8027 119.405 36.608 121.24C35.456 123.032 33.7707 124.44 31.552 125.464C29.3333 126.488 26.7093 127 23.68 127H4.416V82.328H22.848C25.8773 82.328 28.48 82.8187 30.656 83.8C32.8747 84.7813 34.5387 86.1467 35.648 87.896C36.8 89.6453 37.376 91.6293 37.376 93.848C37.376 96.4507 36.672 98.6267 35.264 100.376C33.8987 102.125 32.064 103.363 29.76 104.088ZM13.376 100.76H21.568C23.7013 100.76 25.344 100.291 26.496 99.352C27.648 98.3707 28.224 96.984 28.224 95.192C28.224 93.4 27.648 92.0133 26.496 91.032C25.344 90.0507 23.7013 89.56 21.568 89.56H13.376V100.76ZM22.4 119.704C24.576 119.704 26.2613 119.192 27.456 118.168C28.6933 117.144 29.312 115.693 29.312 113.816C29.312 111.896 28.672 110.403 27.392 109.336C26.112 108.227 24.384 107.672 22.208 107.672H13.376V119.704H22.4ZM78.501 108.504C78.501 109.784 78.4157 110.936 78.245 111.96H52.325C52.5383 114.52 53.4343 116.525 55.013 117.976C56.5917 119.427 58.533 120.152 60.837 120.152C64.165 120.152 66.533 118.723 67.941 115.864H77.605C76.581 119.277 74.6183 122.093 71.717 124.312C68.8157 126.488 65.253 127.576 61.029 127.576C57.6157 127.576 54.5437 126.829 51.813 125.336C49.125 123.8 47.013 121.645 45.477 118.872C43.9837 116.099 43.237 112.899 43.237 109.272C43.237 105.603 43.9837 102.381 45.477 99.608C46.9703 96.8347 49.061 94.7013 51.749 93.208C54.437 91.7147 57.5303 90.968 61.029 90.968C64.3997 90.968 67.4077 91.6933 70.053 93.144C72.741 94.5947 74.8103 96.664 76.261 99.352C77.7543 101.997 78.501 105.048 78.501 108.504ZM69.221 105.944C69.1783 103.64 68.3463 101.805 66.725 100.44C65.1037 99.032 63.1197 98.328 60.773 98.328C58.5543 98.328 56.677 99.0107 55.141 100.376C53.6477 101.699 52.7303 103.555 52.389 105.944H69.221ZM94.001 97.048C95.153 95.1707 96.6463 93.6987 98.481 92.632C100.358 91.5653 102.492 91.032 104.881 91.032V100.44H102.513C99.697 100.44 97.5637 101.101 96.113 102.424C94.705 103.747 94.001 106.051 94.001 109.336V127H85.041V91.544H94.001V97.048ZM119.876 79.64V127H110.916V79.64H119.876ZM133.273 87.32C131.694 87.32 130.371 86.8293 129.305 85.848C128.281 84.824 127.769 83.5653 127.769 82.072C127.769 80.5787 128.281 79.3413 129.305 78.36C130.371 77.336 131.694 76.824 133.273 76.824C134.851 76.824 136.153 77.336 137.177 78.36C138.243 79.3413 138.777 80.5787 138.777 82.072C138.777 83.5653 138.243 84.824 137.177 85.848C136.153 86.8293 134.851 87.32 133.273 87.32ZM137.689 91.544V127H128.729V91.544H137.689ZM190.573 91.032C194.925 91.032 198.424 92.376 201.069 95.064C203.757 97.7093 205.101 101.421 205.101 106.2V127H196.141V107.416C196.141 104.643 195.437 102.531 194.029 101.08C192.621 99.5867 190.701 98.84 188.269 98.84C185.837 98.84 183.896 99.5867 182.445 101.08C181.037 102.531 180.333 104.643 180.333 107.416V127H171.373V107.416C171.373 104.643 170.669 102.531 169.261 101.08C167.853 99.5867 165.933 98.84 163.501 98.84C161.026 98.84 159.064 99.5867 157.613 101.08C156.205 102.531 155.501 104.643 155.501 107.416V127H146.541V91.544H155.501V95.832C156.653 94.3387 158.125 93.1653 159.917 92.312C161.752 91.4587 163.757 91.032 165.933 91.032C168.706 91.032 171.181 91.6293 173.357 92.824C175.533 93.976 177.218 95.64 178.413 97.816C179.565 95.768 181.229 94.1253 183.405 92.888C185.624 91.6507 188.013 91.032 190.573 91.032Z" fill="#C4F5DD"/>
</g>
<g clip-path="url(#clip0)">
<g filter="url(#filter1_d)">
<path d="M146.802 63.102C145.072 61.791 142.409 61.008 139.678 61.008C136.301 61.008 133.549 62.187 132.129 64.243C131.462 65.208 131.093 66.352 131.032 67.641C130.978 68.789 131.171 70.059 131.605 71.425C133.087 66.981 137.227 63.502 142 63.502C142 63.502 137.534 64.677 134.726 68.318C134.085 69.1436 133.571 70.06 133.2 71.037C132.407 72.9256 131.999 74.9536 132 77.002H134C134 77.002 133.696 75.092 134.224 72.896C135.005 73.0074 135.792 73.0666 136.581 73.073C138.42 73.073 139.727 72.675 140.696 71.821C141.564 71.056 142.043 70.027 142.55 68.939C143.324 67.276 144.201 65.392 146.748 63.937C146.82 63.896 146.88 63.8378 146.924 63.7677C146.968 63.6975 146.994 63.6176 146.999 63.535C147.005 63.4525 146.989 63.3699 146.955 63.2947C146.921 63.2194 146.868 63.1539 146.802 63.104V63.102Z" fill="#C4F5DD"/>
<path d="M133.718 76.752C133.716 76.7331 133.714 76.7134 133.712 76.6929C133.691 76.4737 133.669 76.1595 133.664 75.7758C133.654 75.0094 133.711 73.9612 133.981 72.8376C134.011 72.7122 134.132 72.6303 134.259 72.6485C135.029 72.7583 135.805 72.8166 136.582 72.823C138.385 72.8229 139.624 72.4329 140.531 71.6334C141.353 70.9089 141.812 69.9304 142.323 68.8335C142.323 68.8335 142.323 68.8334 142.323 68.8334L142.326 68.8279C143.103 67.1594 144.008 65.2145 146.624 63.7199L146.624 63.7198C146.66 63.6993 146.69 63.6703 146.712 63.6352C146.734 63.6001 146.747 63.5601 146.75 63.5189C146.752 63.4776 146.745 63.4363 146.728 63.3987C146.71 63.3611 146.684 63.3283 146.651 63.3033C146.644 63.2977 146.637 63.2916 146.63 63.2853C144.953 62.0244 142.357 61.258 139.678 61.258C136.351 61.258 133.693 62.4191 132.335 64.3851L132.335 64.3851C131.697 65.3078 131.341 66.4056 131.282 67.6527L133.718 76.752ZM133.718 76.752H132.252C132.283 74.822 132.683 72.9149 133.431 71.1338L133.431 71.1338L133.434 71.1257C133.796 70.1719 134.298 69.2773 134.924 68.4713L134.924 68.4707C136.298 66.6893 138.082 65.5061 139.53 64.7673C140.253 64.3984 140.889 64.1418 141.343 63.9776C141.57 63.8956 141.752 63.8367 141.876 63.7986C141.938 63.7795 141.986 63.7656 142.018 63.7566L142.053 63.7466L142.062 63.7443L142.063 63.7438L142.064 63.7438L142.064 63.7437L142.064 63.7437C142.185 63.7117 142.264 63.5945 142.248 63.4699C142.232 63.3453 142.126 63.252 142 63.252C137.366 63.252 133.333 66.4441 131.634 70.6259M133.718 76.752L131.634 70.6259M131.634 70.6259C131.356 69.5577 131.239 68.5625 131.282 67.6528L131.634 70.6259Z" stroke="#3B7559" stroke-width="0.5" stroke-linecap="round" stroke-linejoin="round"/>
</g>
</g>
<g filter="url(#filter2_d)">
<path d="M155.91 80.58L154.57 88.58C154.549 88.6948 154.489 88.7986 154.399 88.8735C154.31 88.9483 154.197 88.9896 154.08 88.99H147.92C147.803 88.9896 147.69 88.9483 147.601 88.8735C147.511 88.7986 147.451 88.6948 147.43 88.58L146.09 80.58C146.078 80.5088 146.082 80.4359 146.102 80.3664C146.121 80.2969 146.155 80.2324 146.202 80.1773C146.248 80.1222 146.306 80.0778 146.371 80.0472C146.437 80.0166 146.508 80.0005 146.58 80H155.41C155.483 79.9991 155.555 80.0141 155.622 80.0441C155.688 80.074 155.748 80.1182 155.795 80.1735C155.843 80.2288 155.878 80.2938 155.898 80.364C155.917 80.4342 155.922 80.508 155.91 80.58ZM156.5 78.5C156.5 78.6326 156.447 78.7598 156.354 78.8536C156.26 78.9473 156.133 79 156 79H146C145.867 79 145.74 78.9473 145.646 78.8536C145.553 78.7598 145.5 78.6326 145.5 78.5C145.5 78.3674 145.553 78.2402 145.646 78.1464C145.74 78.0527 145.867 78 146 78H148.5V76.5C148.5 76.3674 148.553 76.2402 148.646 76.1464C148.74 76.0527 148.867 76 149 76H153C153.133 76 153.26 76.0527 153.354 76.1464C153.447 76.2402 153.5 76.3674 153.5 76.5V78H156C156.133 78 156.26 78.0527 156.354 78.1464C156.447 78.2402 156.5 78.3674 156.5 78.5ZM152.5 78V77H149.5V78H152.5Z" fill="#C4F5DD"/>
</g>
<defs>
<filter id="filter0_d" x="4.416" y="76.824" width="202.685" height="53.752" filterUnits="userSpaceOnUse" color-interpolation-filters="sRGB">
<feFlood flood-opacity="0" result="BackgroundImageFix"/>
<feColorMatrix in="SourceAlpha" type="matrix" values="0 0 0 0 0 0 0 0 0 0 0 0 0 0 0 0 0 0 127 0"/>
<feOffset dx="1" dy="2"/>
<feGaussianBlur stdDeviation="0.5"/>
<feColorMatrix type="matrix" values="0 0 0 0 0 0 0 0 0 0 0 0 0 0 0 0 0 0 0.25 0"/>
<feBlend mode="normal" in2="BackgroundImageFix" result="effect1_dropShadow"/>
<feBlend mode="normal" in="SourceGraphic" in2="effect1_dropShadow" result="shape"/>
</filter>
<filter id="filter1_d" x="130.023" y="61.008" width="17.9771" height="18.994" filterUnits="userSpaceOnUse" color-interpolation-filters="sRGB">
<feFlood flood-opacity="0" result="BackgroundImageFix"/>
<feColorMatrix in="SourceAlpha" type="matrix" values="0 0 0 0 0 0 0 0 0 0 0 0 0 0 0 0 0 0 127 0"/>
<feOffset dy="2"/>
<feGaussianBlur stdDeviation="0.5"/>
<feColorMatrix type="matrix" values="0 0 0 0 0 0 0 0 0 0 0 0 0 0 0 0 0 0 0.25 0"/>
<feBlend mode="normal" in2="BackgroundImageFix" result="effect1_dropShadow"/>
<feBlend mode="normal" in="SourceGraphic" in2="effect1_dropShadow" result="shape"/>
</filter>
<filter id="filter2_d" x="142.5" y="74" width="19" height="19" filterUnits="userSpaceOnUse" color-interpolation-filters="sRGB">
<feFlood flood-opacity="0" result="BackgroundImageFix"/>
<feColorMatrix in="SourceAlpha" type="matrix" values="0 0 0 0 0 0 0 0 0 0 0 0 0 0 0 0 0 0 127 0"/>
<feOffset dx="1" dy="1"/>
<feGaussianBlur stdDeviation="1"/>
<feColorMatrix type="matrix" values="0 0 0 0 0 0 0 0 0 0 0 0 0 0 0 0 0 0 0.25 0"/>
<feBlend mode="normal" in2="BackgroundImageFix" result="effect1_dropShadow"/>
<feBlend mode="normal" in="SourceGraphic" in2="effect1_dropShadow" result="shape"/>
</filter>
<clipPath id="clip0">
<rect width="16" height="16" fill="white" transform="translate(131 61)"/>
</clipPath>
</defs>
</svg>
