<svg width="210" height="96" viewBox="0 0 210 96" fill="none" xmlns="http://www.w3.org/2000/svg">
<g filter="url(#filter0_d)">
<path d="M29.76 47.088C32.2773 47.5573 34.3467 48.816 35.968 50.864C37.5893 52.912 38.4 55.2587 38.4 57.904C38.4 60.2933 37.8027 62.4053 36.608 64.24C35.456 66.032 33.7707 67.44 31.552 68.464C29.3333 69.488 26.7093 70 23.68 70H4.416V25.328H22.848C25.8773 25.328 28.48 25.8187 30.656 26.8C32.8747 27.7813 34.5387 29.1467 35.648 30.896C36.8 32.6453 37.376 34.6293 37.376 36.848C37.376 39.4507 36.672 41.6267 35.264 43.376C33.8987 45.1253 32.064 46.3627 29.76 47.088ZM13.376 43.76H21.568C23.7013 43.76 25.344 43.2907 26.496 42.352C27.648 41.3707 28.224 39.984 28.224 38.192C28.224 36.4 27.648 35.0133 26.496 34.032C25.344 33.0507 23.7013 32.56 21.568 32.56H13.376V43.76ZM22.4 62.704C24.576 62.704 26.2613 62.192 27.456 61.168C28.6933 60.144 29.312 58.6933 29.312 56.816C29.312 54.896 28.672 53.4027 27.392 52.336C26.112 51.2267 24.384 50.672 22.208 50.672H13.376V62.704H22.4ZM78.501 51.504C78.501 52.784 78.4157 53.936 78.245 54.96H52.325C52.5383 57.52 53.4343 59.5253 55.013 60.976C56.5917 62.4267 58.533 63.152 60.837 63.152C64.165 63.152 66.533 61.7227 67.941 58.864H77.605C76.581 62.2773 74.6183 65.0933 71.717 67.312C68.8157 69.488 65.253 70.576 61.029 70.576C57.6157 70.576 54.5437 69.8293 51.813 68.336C49.125 66.8 47.013 64.6453 45.477 61.872C43.9837 59.0987 43.237 55.8987 43.237 52.272C43.237 48.6027 43.9837 45.3813 45.477 42.608C46.9703 39.8347 49.061 37.7013 51.749 36.208C54.437 34.7147 57.5303 33.968 61.029 33.968C64.3997 33.968 67.4077 34.6933 70.053 36.144C72.741 37.5947 74.8103 39.664 76.261 42.352C77.7543 44.9973 78.501 48.048 78.501 51.504ZM69.221 48.944C69.1783 46.64 68.3463 44.8053 66.725 43.44C65.1037 42.032 63.1197 41.328 60.773 41.328C58.5543 41.328 56.677 42.0107 55.141 43.376C53.6477 44.6987 52.7303 46.5547 52.389 48.944H69.221ZM94.001 40.048C95.153 38.1707 96.6463 36.6987 98.481 35.632C100.358 34.5653 102.492 34.032 104.881 34.032V43.44H102.513C99.697 43.44 97.5637 44.1013 96.113 45.424C94.705 46.7467 94.001 49.0507 94.001 52.336V70H85.041V34.544H94.001V40.048ZM119.876 22.64V70H110.916V22.64H119.876ZM133.273 30.32C131.694 30.32 130.371 29.8293 129.305 28.848C128.281 27.824 127.769 26.5653 127.769 25.072C127.769 23.5787 128.281 22.3413 129.305 21.36C130.371 20.336 131.694 19.824 133.273 19.824C134.851 19.824 136.153 20.336 137.177 21.36C138.243 22.3413 138.777 23.5787 138.777 25.072C138.777 26.5653 138.243 27.824 137.177 28.848C136.153 29.8293 134.851 30.32 133.273 30.32ZM137.689 34.544V70H128.729V34.544H137.689ZM190.573 34.032C194.925 34.032 198.424 35.376 201.069 38.064C203.757 40.7093 205.101 44.4213 205.101 49.2V70H196.141V50.416C196.141 47.6427 195.437 45.5307 194.029 44.08C192.621 42.5867 190.701 41.84 188.269 41.84C185.837 41.84 183.896 42.5867 182.445 44.08C181.037 45.5307 180.333 47.6427 180.333 50.416V70H171.373V50.416C171.373 47.6427 170.669 45.5307 169.261 44.08C167.853 42.5867 165.933 41.84 163.501 41.84C161.026 41.84 159.064 42.5867 157.613 44.08C156.205 45.5307 155.501 47.6427 155.501 50.416V70H146.541V34.544H155.501V38.832C156.653 37.3387 158.125 36.1653 159.917 35.312C161.752 34.4587 163.757 34.032 165.933 34.032C168.706 34.032 171.181 34.6293 173.357 35.824C175.533 36.976 177.218 38.64 178.413 40.816C179.565 38.768 181.229 37.1253 183.405 35.888C185.624 34.6507 188.013 34.032 190.573 34.032Z" fill="#C4F5DD"/>
</g>
<g clip-path="url(#clip0)">
<g filter="url(#filter1_d)">
<path d="M146.802 6.102C145.072 4.791 142.409 4.008 139.678 4.008C136.301 4.008 133.549 5.187 132.129 7.243C131.462 8.208 131.093 9.352 131.032 10.641C130.978 11.789 131.171 13.059 131.605 14.425C133.087 9.981 137.227 6.502 142 6.502C142 6.502 137.534 7.677 134.726 11.318C134.085 12.1436 133.571 13.06 133.2 14.037C132.407 15.9256 131.999 17.9536 132 20.002H134C134 20.002 133.696 18.092 134.224 15.896C135.005 16.0074 135.792 16.0666 136.581 16.073C138.42 16.073 139.727 15.675 140.696 14.821C141.564 14.056 142.043 13.027 142.55 11.939C143.324 10.276 144.201 8.392 146.748 6.937C146.82 6.89601 146.88 6.83783 146.924 6.76768C146.968 6.69752 146.994 6.61759 146.999 6.53503C147.005 6.45248 146.989 6.36989 146.955 6.29466C146.921 6.21943 146.868 6.15392 146.802 6.104V6.102Z" fill="#C4F5DD"/>
<path d="M133.718 19.752C133.716 19.7331 133.714 19.7134 133.712 19.6929C133.691 19.4737 133.669 19.1595 133.664 18.7758C133.654 18.0094 133.711 16.9612 133.981 15.8376C134.011 15.7122 134.132 15.6303 134.259 15.6485C135.029 15.7583 135.805 15.8166 136.582 15.823C138.385 15.8229 139.624 15.4329 140.531 14.6334C141.353 13.9089 141.812 12.9304 142.323 11.8335C142.323 11.8335 142.323 11.8334 142.323 11.8334L142.326 11.8279C143.103 10.1594 144.008 8.2145 146.624 6.71992L146.624 6.71984C146.66 6.69935 146.69 6.67026 146.712 6.63518C146.734 6.60011 146.747 6.56014 146.75 6.51886C146.752 6.47759 146.745 6.43629 146.728 6.39868C146.71 6.36106 146.684 6.32831 146.651 6.30334C146.644 6.29768 146.637 6.29164 146.63 6.28526C144.953 5.02437 142.357 4.258 139.678 4.258C136.351 4.258 133.693 5.41909 132.335 7.38507L132.335 7.38515C131.697 8.30781 131.341 9.40558 131.282 10.6527L133.718 19.752ZM133.718 19.752H132.252C132.283 17.822 132.683 15.9149 133.431 14.1338L133.431 14.1338L133.434 14.1257C133.796 13.1719 134.298 12.2773 134.924 11.4713L134.924 11.4707C136.298 9.68931 138.082 8.50613 139.53 7.76731C140.253 7.39842 140.889 7.14178 141.343 6.97762C141.57 6.89557 141.752 6.83671 141.876 6.79856C141.938 6.77948 141.986 6.76558 142.018 6.75655L142.053 6.74663L142.062 6.74433L142.063 6.74384L142.064 6.74377L142.064 6.74375L142.064 6.74375C142.185 6.71174 142.264 6.59453 142.248 6.46993C142.232 6.34529 142.126 6.252 142 6.252C137.366 6.252 133.333 9.44415 131.634 13.6259M133.718 19.752L131.634 13.6259M131.634 13.6259C131.356 12.5577 131.239 11.5625 131.282 10.6528L131.634 13.6259Z" stroke="#3B7559" stroke-width="0.5" stroke-linecap="round" stroke-linejoin="round"/>
</g>
</g>
<g filter="url(#filter2_d)">
<path d="M155.91 23.58L154.57 31.58C154.549 31.6948 154.489 31.7986 154.399 31.8735C154.31 31.9483 154.197 31.9896 154.08 31.99H147.92C147.803 31.9896 147.69 31.9483 147.601 31.8735C147.511 31.7986 147.451 31.6948 147.43 31.58L146.09 23.58C146.078 23.5088 146.082 23.4359 146.102 23.3664C146.121 23.2969 146.155 23.2324 146.202 23.1773C146.248 23.1222 146.306 23.0778 146.371 23.0472C146.437 23.0166 146.508 23.0005 146.58 23H155.41C155.483 22.9991 155.555 23.0141 155.622 23.0441C155.688 23.074 155.748 23.1182 155.795 23.1735C155.843 23.2288 155.878 23.2938 155.898 23.364C155.917 23.4342 155.922 23.508 155.91 23.58ZM156.5 21.5C156.5 21.6326 156.447 21.7598 156.354 21.8536C156.26 21.9473 156.133 22 156 22H146C145.867 22 145.74 21.9473 145.646 21.8536C145.553 21.7598 145.5 21.6326 145.5 21.5C145.5 21.3674 145.553 21.2402 145.646 21.1464C145.74 21.0527 145.867 21 146 21H148.5V19.5C148.5 19.3674 148.553 19.2402 148.646 19.1464C148.74 19.0527 148.867 19 149 19H153C153.133 19 153.26 19.0527 153.354 19.1464C153.447 19.2402 153.5 19.3674 153.5 19.5V21H156C156.133 21 156.26 21.0527 156.354 21.1464C156.447 21.2402 156.5 21.3674 156.5 21.5ZM152.5 21V20H149.5V21H152.5Z" fill="#C4F5DD"/>
</g>
<defs>
<filter id="filter0_d" x="4.416" y="19.824" width="202.685" height="53.752" filterUnits="userSpaceOnUse" color-interpolation-filters="sRGB">
<feFlood flood-opacity="0" result="BackgroundImageFix"/>
<feColorMatrix in="SourceAlpha" type="matrix" values="0 0 0 0 0 0 0 0 0 0 0 0 0 0 0 0 0 0 127 0"/>
<feOffset dx="1" dy="2"/>
<feGaussianBlur stdDeviation="0.5"/>
<feColorMatrix type="matrix" values="0 0 0 0 0 0 0 0 0 0 0 0 0 0 0 0 0 0 0.25 0"/>
<feBlend mode="normal" in2="BackgroundImageFix" result="effect1_dropShadow"/>
<feBlend mode="normal" in="SourceGraphic" in2="effect1_dropShadow" result="shape"/>
</filter>
<filter id="filter1_d" x="130.023" y="4.008" width="17.9771" height="18.994" filterUnits="userSpaceOnUse" color-interpolation-filters="sRGB">
<feFlood flood-opacity="0" result="BackgroundImageFix"/>
<feColorMatrix in="SourceAlpha" type="matrix" values="0 0 0 0 0 0 0 0 0 0 0 0 0 0 0 0 0 0 127 0"/>
<feOffset dy="2"/>
<feGaussianBlur stdDeviation="0.5"/>
<feColorMatrix type="matrix" values="0 0 0 0 0 0 0 0 0 0 0 0 0 0 0 0 0 0 0.25 0"/>
<feBlend mode="normal" in2="BackgroundImageFix" result="effect1_dropShadow"/>
<feBlend mode="normal" in="SourceGraphic" in2="effect1_dropShadow" result="shape"/>
</filter>
<filter id="filter2_d" x="142.5" y="17" width="19" height="19" filterUnits="userSpaceOnUse" color-interpolation-filters="sRGB">
<feFlood flood-opacity="0" result="BackgroundImageFix"/>
<feColorMatrix in="SourceAlpha" type="matrix" values="0 0 0 0 0 0 0 0 0 0 0 0 0 0 0 0 0 0 127 0"/>
<feOffset dx="1" dy="1"/>
<feGaussianBlur stdDeviation="1"/>
<feColorMatrix type="matrix" values="0 0 0 0 0 0 0 0 0 0 0 0 0 0 0 0 0 0 0.25 0"/>
<feBlend mode="normal" in2="BackgroundImageFix" result="effect1_dropShadow"/>
<feBlend mode="normal" in="SourceGraphic" in2="effect1_dropShadow" result="shape"/>
</filter>
<clipPath id="clip0">
<rect width="16" height="16" fill="white" transform="translate(131 4)"/>
</clipPath>
</defs>
</svg>
